name rise35.5848peak51.9257fall54.8793.mot
datacolumns 19
datarows 33
range 3.05665200000000 3.10998100000000
endheader
time	ground_force1_vx	ground_force1_vy	ground_force1_vz	ground_force1_px	ground_force1_py	ground_force1_pz	ground_force2_vx	ground_force2_vy	ground_force2_vz	ground_force2_px	ground_force2_py	ground_force2_pz	ground_torque1_x	ground_torque1_y	ground_torque1_z	ground_torque2_x	ground_torque2_y	ground_torque2_z	
3.05665200000000	59.78631500000000	791.98913100000004	55.65912600000000	0.32028100000000	0.00000000000000	0.11276800000000	0.00000000000000	0.00000000000000	0.00000000000000	0.00000000000000	0.00000000000000	0.00000000000000	0.00000000000000	22.26480900000000	0.00000000000000	0.00000000000000	0.00000000000000	0.00000000000000	
3.05832800000000	59.15204200000000	794.80687699999999	55.79336900000000	0.31946200000000	0.00000000000000	0.11280900000000	0.00000000000000	0.00000000000000	0.00000000000000	0.00000000000000	0.00000000000000	0.00000000000000	0.00000000000000	22.39236200000000	0.00000000000000	0.00000000000000	0.00000000000000	0.00000000000000	
3.05998400000000	58.51281900000000	797.45190500000001	55.91587300000000	0.31865000000000	0.00000000000000	0.11284900000000	0.00000000000000	0.00000000000000	0.00000000000000	0.00000000000000	0.00000000000000	0.00000000000000	0.00000000000000	22.51445600000000	0.00000000000000	0.00000000000000	0.00000000000000	0.00000000000000	
3.06164900000000	57.86946100000000	799.92338299999994	56.02652700000000	0.31784300000000	0.00000000000000	0.11289000000000	0.00000000000000	0.00000000000000	0.00000000000000	0.00000000000000	0.00000000000000	0.00000000000000	0.00000000000000	22.63083700000000	0.00000000000000	0.00000000000000	0.00000000000000	0.00000000000000	
3.06332800000000	57.22273700000000	802.22071200000005	56.12520700000000	0.31704200000000	0.00000000000000	0.11293100000000	0.00000000000000	0.00000000000000	0.00000000000000	0.00000000000000	0.00000000000000	0.00000000000000	0.00000000000000	22.74124000000000	0.00000000000000	0.00000000000000	0.00000000000000	0.00000000000000	
3.06498000000000	56.57336900000000	804.34352300000000	56.21178200000000	0.31624400000000	0.00000000000000	0.11297300000000	0.00000000000000	0.00000000000000	0.00000000000000	0.00000000000000	0.00000000000000	0.00000000000000	0.00000000000000	22.84540200000000	0.00000000000000	0.00000000000000	0.00000000000000	0.00000000000000	
3.06665400000000	55.92203900000000	806.29169300000001	56.28611200000000	0.31545000000000	0.00000000000000	0.11301400000000	0.00000000000000	0.00000000000000	0.00000000000000	0.00000000000000	0.00000000000000	0.00000000000000	0.00000000000000	22.94305200000000	0.00000000000000	0.00000000000000	0.00000000000000	0.00000000000000	
3.06833000000000	55.26938100000000	808.06533999999999	56.34805700000000	0.31465700000000	0.00000000000000	0.11305700000000	0.00000000000000	0.00000000000000	0.00000000000000	0.00000000000000	0.00000000000000	0.00000000000000	0.00000000000000	23.03392600000000	0.00000000000000	0.00000000000000	0.00000000000000	0.00000000000000	
3.06998500000000	54.61598900000000	809.66483800000003	56.39747700000000	0.31386400000000	0.00000000000000	0.11309900000000	0.00000000000000	0.00000000000000	0.00000000000000	0.00000000000000	0.00000000000000	0.00000000000000	0.00000000000000	23.11775900000000	0.00000000000000	0.00000000000000	0.00000000000000	0.00000000000000	
3.07164800000000	53.96241600000000	811.09081000000003	56.43423400000000	0.31307000000000	0.00000000000000	0.11314200000000	0.00000000000000	0.00000000000000	0.00000000000000	0.00000000000000	0.00000000000000	0.00000000000000	0.00000000000000	23.19429300000000	0.00000000000000	0.00000000000000	0.00000000000000	0.00000000000000	
3.07333000000000	53.30917700000000	812.34414000000004	56.45820000000000	0.31227500000000	0.00000000000000	0.11318600000000	0.00000000000000	0.00000000000000	0.00000000000000	0.00000000000000	0.00000000000000	0.00000000000000	0.00000000000000	23.26328000000000	0.00000000000000	0.00000000000000	0.00000000000000	0.00000000000000	
3.07498800000000	52.65674800000000	813.42596800000001	56.46925600000000	0.31147700000000	0.00000000000000	0.11322900000000	0.00000000000000	0.00000000000000	0.00000000000000	0.00000000000000	0.00000000000000	0.00000000000000	0.00000000000000	23.32448000000000	0.00000000000000	0.00000000000000	0.00000000000000	0.00000000000000	
3.07665400000000	52.00556800000000	814.33769600000005	56.46729600000000	0.31067400000000	0.00000000000000	0.11327400000000	0.00000000000000	0.00000000000000	0.00000000000000	0.00000000000000	0.00000000000000	0.00000000000000	0.00000000000000	23.37766800000000	0.00000000000000	0.00000000000000	0.00000000000000	0.00000000000000	
3.07833000000000	51.35604600000000	815.08098299999995	56.45223000000000	0.30986600000000	0.00000000000000	0.11331800000000	0.00000000000000	0.00000000000000	0.00000000000000	0.00000000000000	0.00000000000000	0.00000000000000	0.00000000000000	23.42263200000000	0.00000000000000	0.00000000000000	0.00000000000000	0.00000000000000	
3.07998100000000	50.70855700000000	815.65774999999996	56.42398900000000	0.30905200000000	0.00000000000000	0.11336300000000	0.00000000000000	0.00000000000000	0.00000000000000	0.00000000000000	0.00000000000000	0.00000000000000	0.00000000000000	23.45918100000000	0.00000000000000	0.00000000000000	0.00000000000000	0.00000000000000	
3.08165500000000	50.06344500000000	816.07017299999995	56.38252400000000	0.30823000000000	0.00000000000000	0.11340900000000	0.00000000000000	0.00000000000000	0.00000000000000	0.00000000000000	0.00000000000000	0.00000000000000	0.00000000000000	23.48713800000000	0.00000000000000	0.00000000000000	0.00000000000000	0.00000000000000	
3.08333400000000	49.42103000000000	816.32068300000003	56.32780900000000	0.30740000000000	0.00000000000000	0.11345400000000	0.00000000000000	0.00000000000000	0.00000000000000	0.00000000000000	0.00000000000000	0.00000000000000	0.00000000000000	23.50635200000000	0.00000000000000	0.00000000000000	0.00000000000000	0.00000000000000	
3.08498000000000	48.78160400000000	816.41196200000002	56.25984700000000	0.30656000000000	0.00000000000000	0.11350100000000	0.00000000000000	0.00000000000000	0.00000000000000	0.00000000000000	0.00000000000000	0.00000000000000	0.00000000000000	23.51669000000000	0.00000000000000	0.00000000000000	0.00000000000000	0.00000000000000	
3.08664600000000	48.14543700000000	816.34693900000002	56.17866600000000	0.30570900000000	0.00000000000000	0.11354700000000	0.00000000000000	0.00000000000000	0.00000000000000	0.00000000000000	0.00000000000000	0.00000000000000	0.00000000000000	23.51804600000000	0.00000000000000	0.00000000000000	0.00000000000000	0.00000000000000	
3.08832100000000	47.51277700000000	816.12878400000000	56.08432700000000	0.30484700000000	0.00000000000000	0.11359400000000	0.00000000000000	0.00000000000000	0.00000000000000	0.00000000000000	0.00000000000000	0.00000000000000	0.00000000000000	23.51033800000000	0.00000000000000	0.00000000000000	0.00000000000000	0.00000000000000	
3.08998200000000	46.88385500000000	815.76090099999999	55.97691900000000	0.30397200000000	0.00000000000000	0.11364100000000	0.00000000000000	0.00000000000000	0.00000000000000	0.00000000000000	0.00000000000000	0.00000000000000	0.00000000000000	23.49351100000000	0.00000000000000	0.00000000000000	0.00000000000000	0.00000000000000	
3.09164600000000	46.25888400000000	815.24692300000004	55.85656700000000	0.30308400000000	0.00000000000000	0.11368900000000	0.00000000000000	0.00000000000000	0.00000000000000	0.00000000000000	0.00000000000000	0.00000000000000	0.00000000000000	23.46753700000000	0.00000000000000	0.00000000000000	0.00000000000000	0.00000000000000	
3.09332500000000	45.63806300000000	814.59070199999996	55.72342500000000	0.30218200000000	0.00000000000000	0.11373600000000	0.00000000000000	0.00000000000000	0.00000000000000	0.00000000000000	0.00000000000000	0.00000000000000	0.00000000000000	23.43241500000000	0.00000000000000	0.00000000000000	0.00000000000000	0.00000000000000	
3.09498000000000	45.02157800000000	813.79630399999996	55.57768500000000	0.30126500000000	0.00000000000000	0.11378400000000	0.00000000000000	0.00000000000000	0.00000000000000	0.00000000000000	0.00000000000000	0.00000000000000	0.00000000000000	23.38817400000000	0.00000000000000	0.00000000000000	0.00000000000000	0.00000000000000	
3.09665200000000	44.40960300000000	812.86799399999995	55.41957000000000	0.30033300000000	0.00000000000000	0.11383300000000	0.00000000000000	0.00000000000000	0.00000000000000	0.00000000000000	0.00000000000000	0.00000000000000	0.00000000000000	23.33487200000000	0.00000000000000	0.00000000000000	0.00000000000000	0.00000000000000	
3.09832700000000	43.80230700000000	811.81023300000004	55.24934100000000	0.29938500000000	0.00000000000000	0.11388100000000	0.00000000000000	0.00000000000000	0.00000000000000	0.00000000000000	0.00000000000000	0.00000000000000	0.00000000000000	23.27259400000000	0.00000000000000	0.00000000000000	0.00000000000000	0.00000000000000	
3.09998700000000	43.19984800000000	810.62766099999999	55.06728900000000	0.29842000000000	0.00000000000000	0.11393000000000	0.00000000000000	0.00000000000000	0.00000000000000	0.00000000000000	0.00000000000000	0.00000000000000	0.00000000000000	23.20145600000000	0.00000000000000	0.00000000000000	0.00000000000000	0.00000000000000	
3.10165100000000	42.60238100000000	809.32509000000005	54.87374200000000	0.29743900000000	0.00000000000000	0.11397900000000	0.00000000000000	0.00000000000000	0.00000000000000	0.00000000000000	0.00000000000000	0.00000000000000	0.00000000000000	23.12160100000000	0.00000000000000	0.00000000000000	0.00000000000000	0.00000000000000	
3.10331600000000	42.01005500000000	807.90749000000005	54.66906000000000	0.29644100000000	0.00000000000000	0.11402800000000	0.00000000000000	0.00000000000000	0.00000000000000	0.00000000000000	0.00000000000000	0.00000000000000	0.00000000000000	23.03320100000000	0.00000000000000	0.00000000000000	0.00000000000000	0.00000000000000	
3.10498800000000	41.42301800000000	806.37998000000005	54.45363400000000	0.29542500000000	0.00000000000000	0.11407700000000	0.00000000000000	0.00000000000000	0.00000000000000	0.00000000000000	0.00000000000000	0.00000000000000	0.00000000000000	22.93645600000000	0.00000000000000	0.00000000000000	0.00000000000000	0.00000000000000	
3.10665400000000	40.84141600000000	804.74780999999996	54.22788800000000	0.29439200000000	0.00000000000000	0.11412600000000	0.00000000000000	0.00000000000000	0.00000000000000	0.00000000000000	0.00000000000000	0.00000000000000	0.00000000000000	22.83159000000000	0.00000000000000	0.00000000000000	0.00000000000000	0.00000000000000	
3.10832700000000	40.26539500000000	803.01635399999998	53.99227200000000	0.29334200000000	0.00000000000000	0.11417500000000	0.00000000000000	0.00000000000000	0.00000000000000	0.00000000000000	0.00000000000000	0.00000000000000	0.00000000000000	22.71885600000000	0.00000000000000	0.00000000000000	0.00000000000000	0.00000000000000	
3.10998100000000	39.69510100000000	801.19109100000003	53.74726800000000	0.29227500000000	0.00000000000000	0.11422400000000	0.00000000000000	0.00000000000000	0.00000000000000	0.00000000000000	0.00000000000000	0.00000000000000	0.00000000000000	22.59852900000000	0.00000000000000	0.00000000000000	0.00000000000000	0.00000000000000	
